<mxfile host="app.diagrams.net" modified="2024-04-23T23:26:05.924Z" agent="Mozilla/5.0 (Macintosh; Intel Mac OS X 10_15_7) AppleWebKit/537.36 (KHTML, like Gecko) Chrome/124.0.0.0 Safari/537.36" version="24.0.4" etag="OJ5GReVyb3R9HdNJ2hXl" type="github">
  <diagram name="PÃ¡gina-1" id="75Oryfnz-8qlF3-qaDak">
    <mxGraphModel>
      <root>
        <mxCell id="0" />
        <mxCell id="1" parent="0" />
      </root>
    </mxGraphModel>
  </diagram>
</mxfile>
